<svg width="227" height="34" viewBox="0 0 227 34" xmlns="http://www.w3.org/2000/svg" xmlns:xlink="http://www.w3.org/1999/xlink">
  <defs>
    <polygon id="cl_logo_horizontal-a" points="85.946 0 0 0 0 34 85.946 34 171.892 34 171.892 0 85.946 0"/>
  </defs>
  <g fill="none" fill-rule="evenodd">
    <path fill="#151F34" d="M53.2753016 27.1174286C51.7026667 28.0769841 49.038254 28.5826667 46.6134603 28.5826667 39.9786032 28.5826667 37.2602222 24.7190794 37.2602222 18.5375556 37.2602222 12.8611746 40.538254 8.62466667 47.1731111 8.62466667 49.3847302 8.62466667 51.7560952 9.18431746 53.221873 10.1433333L53.221873 15.3658413 50.2903175 15.1267619 49.8645079 12.5152381C49.8110794 12.2486349 49.7047619 12.1153333 49.437619 12.0354603 48.8520635 11.8487302 47.9459365 11.7159683 47.066254 11.7159683 43.6819048 11.7159683 41.5237143 14.0069206 41.5237143 18.5375556 41.5237143 23.2538413 43.5755873 25.5453333 46.8795238 25.5453333 47.7592063 25.5453333 48.8520635 25.4120317 49.5444762 25.1988571 49.8645079 25.1189841 49.9438413 25.0385714 50.024254 24.6392063L50.4241587 22.1615238 53.2753016 22.1615238 53.2753016 27.1174286M64.6005397 21.2553968C64.6005397 18.1106667 63.6409841 16.9913651 61.9096825 16.9913651 60.1508571 16.9913651 58.978127 18.0847619 58.978127 21.2813016 58.978127 24.5059048 60.0175556 25.7854921 61.8028254 25.7854921 63.5346667 25.7854921 64.6005397 24.5857778 64.6005397 21.2553968zM54.7680635 21.4151429C54.7680635 16.9913651 57.0865397 14.1137778 61.9625714 14.1137778 66.8920317 14.1137778 68.8106032 17.0453333 68.8106032 21.1220952 68.8106032 25.6521905 66.5191111 28.5826667 61.6160952 28.5826667 56.7400635 28.5826667 54.7680635 25.5982222 54.7680635 21.4151429L54.7680635 21.4151429zM82.3749841 27.2777143C81.1493651 28.0235556 79.2572381 28.5826667 77.3122222 28.5826667 72.4890794 28.5826667 70.3308889 25.5723175 70.3308889 21.5214603 70.3308889 16.5385714 73.3687619 14.1137778 77.632254 14.1137778 79.7100317 14.1137778 81.5492698 14.699873 82.3749841 15.233619L82.3749841 19.4166984 79.5238413 19.2833968 79.2038095 17.5240317C79.1773651 17.3378413 79.1244762 17.1786349 78.8843175 17.0982222 78.5648254 16.9913651 78.0580635 16.9120317 77.5253968 16.9120317 75.9268571 16.9120317 74.5679365 18.0043492 74.5679365 21.1220952 74.5679365 24.5857778 76.1130476 25.5723175 78.0046349 25.5723175 79.3376508 25.5723175 80.5362857 25.1454286 81.3360952 24.7989524L82.3749841 27.2777143M93.9673651 28.2631746L90.5830159 21.4685714 89.1442222 23.0406667 89.1442222 25.4390159C89.1442222 25.8648254 89.1706667 25.9187937 89.5705714 25.9716825L91.1696508 26.1584127 91.1696508 28.2631746 83.3615238 28.2631746 83.3615238 26.1584127 84.6945397 25.9716825C85.0669206 25.9187937 85.1203492 25.838381 85.1203492 25.4390159L85.1203492 11.3694921C85.1203492 11.0759048 85.0404762 10.8897143 84.773873 10.8098413L83.3086349 10.303619 83.6016825 8.14488889 89.1442222 8.14488889 89.1442222 19.5230159 94.0207937 14.380381 97.6976508 14.380381 97.6976508 16.4856825 96.311746 16.751746C95.9652698 16.8051746 95.8859365 16.8850476 95.6457778 17.1516508L93.7536508 19.1500952 97.1644444 25.5183492C97.3511746 25.8918095 97.5379048 25.9446984 97.964254 25.998127L99.1369841 26.1848571 99.1369841 28.2631746 93.9673651 28.2631746M100.363683 28.2631746L100.363683 26.1049841 101.562857 25.9446984C101.935778 25.8918095 101.988667 25.8119365 101.988667 25.4120317L101.988667 17.6049841C101.988667 17.3113968 101.909333 17.1252063 101.64219 17.0453333L100.203937 16.5385714 100.496444 14.380381 105.186825 14.380381 105.506317 16.5115873 105.666603 16.5115873C106.545746 15.1526667 107.717937 14.1137778 109.423333 14.1137778 110.036413 14.1137778 111.262032 14.2206349 111.74181 14.3533968L111.74181 19.2035238 108.54419 19.0972063 108.277587 17.6843175C108.224698 17.4446984 108.144286 17.3918095 107.931111 17.3918095 107.238159 17.3918095 106.411905 17.9773651 106.01254 18.3238413L106.01254 25.3850476C106.01254 25.8119365 106.039524 25.8918095 106.438889 25.9187937L109.077397 26.1319683 109.077397 28.2631746 100.363683 28.2631746M122.774 21.2553968C122.774 18.1106667 121.814444 16.9913651 120.083143 16.9913651 118.324317 16.9913651 117.151587 18.0847619 117.151587 21.2813016 117.151587 24.5059048 118.191016 25.7854921 119.976286 25.7854921 121.708127 25.7854921 122.774 24.5857778 122.774 21.2553968zM112.941524 21.4151429C112.941524 16.9913651 115.26 14.1137778 120.136032 14.1137778 125.065492 14.1137778 126.984063 17.0453333 126.984063 21.1220952 126.984063 25.6521905 124.692571 28.5826667 119.789556 28.5826667 114.913524 28.5826667 112.941524 25.5982222 112.941524 21.4151429L112.941524 21.4151429zM136.151651 22.5339048L134.339397 22.6672063C132.767302 22.7740635 132.207651 23.1739683 132.207651 24.2393016 132.207651 25.3057143 132.847175 25.7045397 133.726857 25.7045397 134.632984 25.7045397 135.538571 25.1988571 136.151651 24.7460635L136.151651 22.5339048zM136.871048 28.2631746L136.604444 26.824381 136.471143 26.7979365C135.458698 27.7833968 134.126762 28.5826667 131.994476 28.5826667 128.637111 28.5826667 128.104444 26.2911746 128.104444 24.6392063 128.104444 21.974254 129.755873 20.7486349 133.087333 20.536L136.151651 20.3228254 136.151651 18.8570476C136.151651 17.6049841 136.018349 16.751746 134.365841 16.751746 133.087333 16.751746 132.421365 16.9390159 132.421365 18.5375556L128.664095 18.2169841C128.664095 14.62 131.941048 14.1137778 134.392825 14.1137778 138.443143 14.1137778 140.068667 15.2066349 140.068667 18.9369206L140.068667 25.4120317C140.068667 25.838381 140.095111 25.8918095 140.495016 25.9446984L141.774063 26.1584127 141.774063 28.2631746 136.871048 28.2631746 136.871048 28.2631746zM154.405333 27.2777143C153.179714 28.0235556 151.287587 28.5826667 149.343111 28.5826667 144.519429 28.5826667 142.361238 25.5723175 142.361238 21.5214603 142.361238 16.5385714 145.399111 14.1137778 149.662603 14.1137778 151.740921 14.1137778 153.579619 14.699873 154.405333 15.233619L154.405333 19.4166984 151.55473 19.2833968 151.234698 17.5240317C151.208254 17.3378413 151.154825 17.1786349 150.914667 17.0982222 150.595175 16.9913651 150.088413 16.9120317 149.555746 16.9120317 147.957206 16.9120317 146.598286 18.0043492 146.598286 21.1220952 146.598286 24.5857778 148.143937 25.5723175 150.035524 25.5723175 151.368 25.5723175 152.567175 25.1454286 153.366444 24.7989524L154.405333 27.2777143"/>
    <mask id="cl_logo_horizontal-b" fill="#fff">
      <use xlink:href="#cl_logo_horizontal-a"/>
    </mask>
    <path fill="#151F34" d="M166.109429,28.2631746 L166.109429,19.5759048 C166.109429,18.7766349 166.029556,17.3113968 164.697619,17.3113968 C163.711619,17.3113968 162.592317,17.817619 161.92581,18.2979365 L161.92581,25.4390159 C161.92581,25.8648254 161.952794,25.9187937 162.352159,25.9716825 L163.631206,26.1584127 L163.631206,28.2631746 L156.276952,28.2631746 L156.276952,26.1584127 L157.476127,25.9716825 C157.849048,25.9187937 157.902476,25.838381 157.902476,25.4390159 L157.902476,11.3694921 C157.902476,11.0759048 157.822603,10.8897143 157.556,10.8098413 L156.090222,10.303619 L156.38381,8.14488889 L161.872381,8.14488889 L161.872381,15.6864127 L162.006222,15.7123175 C163.204857,14.7268571 164.590762,14.1137778 166.269175,14.1137778 C169.093873,14.1137778 170.133302,15.6594286 170.133302,18.4301587 L170.133302,25.4390159 C170.133302,25.8648254 170.160286,25.9187937 170.559651,25.9716825 L171.891587,26.1584127 L171.891587,28.2631746 L166.109429,28.2631746" mask="url(#cl_logo_horizontal-b)"/>
    <polyline fill="#348540" points="179.475 14.408 182.528 14.408 182.528 25.445 188.183 25.445 188.183 28.263 179.475 28.263 179.475 14.408"/>
    <path fill="#348540" d="M196.226413 18.4393333L194.543143 22.744381 197.928571 22.744381 196.226413 18.4393333zM195.052063 14.4079048L197.576698 14.4079048 203.603873 28.2631746 200.159619 28.2631746 198.965841 25.3273016 193.584127 25.3273016 192.429746 28.2631746 189.063746 28.2631746 195.052063 14.4079048 195.052063 14.4079048zM207.90946 25.680254L210.649429 25.680254C210.88419 25.680254 211.12219 25.6543492 211.363429 25.6014603 211.604667 25.5496508 211.823778 25.4584444 212.019143 25.3273016 212.214508 25.1972381 212.374794 25.0283175 212.498381 24.8189206 212.622508 24.6100635 212.684571 24.3553333 212.684571 24.0552698 212.684571 23.7293016 212.603079 23.4659365 212.440095 23.2635556 212.276571 23.0606349 212.070952 22.9079048 211.823778 22.8032063 211.575524 22.6990476 211.307841 22.6272698 211.02127 22.5873333 210.733619 22.5484762 210.466476 22.5290476 210.218762 22.5290476L207.90946 22.5290476 207.90946 25.680254zM207.90946 19.946127L210.121079 19.946127C210.355841 19.946127 210.586825 19.9202222 210.815651 19.867873 211.043397 19.8160635 211.249556 19.7307937 211.431968 19.6136825 211.614381 19.4954921 211.761175 19.3395238 211.872349 19.143619 211.982984 18.948254 212.038571 18.7134921 212.038571 18.4393333 212.038571 18.1522222 211.977048 17.9136825 211.852921 17.7253333 211.728794 17.5359048 211.569048 17.3891111 211.373683 17.2844127 211.177778 17.180254 210.955968 17.1052381 210.707714 17.0593651 210.46 17.0134921 210.218762 16.9908254 209.984 16.9908254L207.90946 16.9908254 207.90946 19.946127zM204.856476 14.4079048L210.022857 14.4079048C210.622984 14.4079048 211.226889 14.45 211.833492 14.5347302 212.440095 14.62 212.984635 14.7894603 213.467651 15.0436508 213.949587 15.298381 214.341397 15.6540317 214.64146 16.1100635 214.941524 16.5671746 215.091556 17.1737778 215.091556 17.929873 215.091556 18.7134921 214.872984 19.3621905 214.436381 19.8775873 213.999238 20.3935238 213.421778 20.7615873 212.70454 20.9828571L212.70454 21.022254C213.160571 21.0880952 213.575048 21.2149206 213.946889 21.4043492 214.31873 21.5932381 214.638222 21.8344762 214.905905 22.1280635 215.173048 22.4216508 215.378667 22.7638095 215.522222 23.1550794 215.665778 23.5474286 215.737556 23.9646032 215.737556 24.4076825 215.737556 25.1389524 215.580508 25.7487937 215.267492 26.2372063 214.954476 26.7272381 214.550254 27.1212063 214.054286 27.4218095 213.558857 27.721873 213.000825 27.9372063 212.38127 28.0672698 211.761175 28.1984127 211.144857 28.2631746 210.531778 28.2631746L204.856476 28.2631746 204.856476 14.4079048 204.856476 14.4079048zM224.48527 17.7933333C224.237556 17.4803175 223.901333 17.2487937 223.477683 17.0982222 223.053492 16.9487302 222.652508 16.8737143 222.27419 16.8737143 222.052381 16.8737143 221.824095 16.899619 221.589333 16.9519683 221.354571 17.0037778 221.132222 17.0858095 220.923905 17.1964444 220.715048 17.3070794 220.545048 17.4544127 220.414984 17.6362857 220.284381 17.8192381 220.219079 18.0415873 220.219079 18.3017143 220.219079 18.7199683 220.375587 19.0394603 220.688603 19.2612698 221.002159 19.483619 221.396127 19.6719683 221.872667 19.8284762 222.349206 19.9849841 222.860825 20.1414921 223.409143 20.2985397 223.95746 20.4545079 224.46854 20.6763175 224.945619 20.9634286 225.421619 21.2505397 225.816127 21.635873 226.129683 22.1183492 226.442698 22.6013651 226.599206 23.2473651 226.599206 24.0552698 226.599206 24.8253968 226.455111 25.4973016 226.16854 26.0715238 225.881429 26.645746 225.493397 27.1212063 225.003905 27.5006032 224.514952 27.878381 223.947206 28.1590159 223.301206 28.3414286 222.655746 28.524381 221.973587 28.6155873 221.256349 28.6155873 220.356159 28.6155873 219.52073 28.4790476 218.751683 28.2048889 217.981556 27.9307302 217.264317 27.4876508 216.598349 26.8734921L218.771111 24.4864762C219.084127 24.9036508 219.478635 25.226381 219.954635 25.4552063 220.431175 25.6834921 220.923905 25.7973651 221.432286 25.7973651 221.68 25.7973651 221.931492 25.7682222 222.186222 25.7093968 222.440413 25.6500317 222.668698 25.5626032 222.87054 25.4454921 223.07346 25.3273016 223.235905 25.1778095 223.360571 24.9948571 223.484159 24.8124444 223.546222 24.5971111 223.546222 24.3488571 223.546222 23.9316825 223.386476 23.6024762 223.066984 23.3612381 222.746952 23.1194603 222.345968 22.914381 221.862952 22.744381 221.379937 22.5754603 220.858603 22.4054603 220.297873 22.2354603 219.736603 22.0665397 219.21419 21.8377143 218.731714 21.5506032 218.249238 21.2634921 217.847714 20.8857143 217.528762 20.4156508 217.20873 19.946127 217.048444 19.3265714 217.048444 18.5564444 217.048444 17.8127619 217.195238 17.1608254 217.488825 16.5995556 217.782413 16.0382857 218.174222 15.5693016 218.663175 15.1904444 219.152667 14.812127 219.717175 14.528254 220.356159 14.3388254 220.995143 14.1499365 221.654095 14.0560317 222.333016 14.0560317 223.115556 14.0560317 223.87219 14.166127 224.602921 14.3884762 225.333111 14.6102857 225.992603 14.982127 226.579778 15.5034603L224.48527 17.7933333"/>
    <g transform="translate(1 1)">
      <path fill="#151F34" d="M19.4208,9.17013333 C18.2954667,9.4336 17.1184,9.57013333 15.9130667,9.57013333 C14.7077333,9.57013333 13.5306667,9.4336 12.4005333,9.17013333 C13.3418667,7.67733333 14.5333333,6.34933333 15.9130667,5.25706667 C17.2928,6.35413333 18.4789333,7.67733333 19.4208,9.17013333 L19.4208,9.17013333 Z M30.0298667,0.573866667 C28.6149333,0.196266667 27.1232,0 25.5888,0 C22.0133333,0 18.6858667,1.07573333 15.9088,2.92533333 C13.136,1.07573333 9.80906667,0 6.22826667,0 C4.69386667,0 3.20213333,0.196266667 1.7872,0.573866667 C1.18986667,0.725333333 0.610666667,0.9168 0.0442666667,1.13066667 C0.00746666667,1.14453333 -0.0101333333,1.18826667 0.0064,1.224 C0.253866667,1.7616 0.5296,2.28266667 0.8272,2.78666667 C0.8432,2.81493333 0.877333333,2.82666667 0.907733333,2.816 C1.49813333,2.60426667 2.10186667,2.424 2.71946667,2.28 C3.84746667,2.01706667 5.02346667,1.88373333 6.22826667,1.88373333 C9.1824,1.88373333 11.9456,2.7104 14.3072,4.13493333 C12.8106667,5.4016 11.5296,6.91733333 10.5306667,8.6144 C10.3349333,8.9392 10.1578667,9.26933333 9.9856,9.60373333 C9.87093333,9.82826667 9.76106667,10.0581333 9.6512,10.2970667 C9.49333333,10.6554667 9.34026667,11.0138667 9.2064,11.3818667 C8.4992,13.28 8.112,15.3354667 8.112,17.4725333 C8.112,22.4197333 10.1818667,26.8944 13.4992,30.0784 C13.7573333,30.3317333 14.0250667,30.5706667 14.3072,30.8048 C14.5269333,30.9957333 14.7472,31.1728 14.9765333,31.3450667 C15.2656,31.5744 15.5674667,31.7861333 15.8704,31.9882667 C15.8933333,32.0042667 15.9237333,32.0037333 15.9466667,31.9882667 C16.2490667,31.7813333 16.5472,31.5696 16.8357333,31.3450667 C17.0704,31.1728 17.2901333,30.9957333 17.5098667,30.8048 C17.7872,30.5706667 18.0645333,30.3269333 18.3226667,30.0784 C21.6352,26.8944 23.7056,22.4154667 23.7056,17.4725333 C23.7056,15.3354667 23.3184,13.2848 22.6106667,11.3866667 C22.472,11.0186667 22.3237333,10.6554667 22.1616,10.2970667 C22.056,10.0581333 21.9461333,9.82826667 21.8362667,9.60373333 C21.6592,9.26933333 21.4826667,8.9392 21.2864,8.6144 C20.2826667,6.91733333 19.0064,5.4016 17.5098667,4.13493333 C19.8714667,2.7104 22.6346667,1.88373333 25.5888,1.88373333 C26.7936,1.88373333 27.9696,2.01706667 29.0976,2.28 C29.7152,2.424 30.3237333,2.60426667 30.9098667,2.816 C30.9402667,2.82666667 30.9738667,2.8144 30.9904,2.78666667 C31.2869333,2.28266667 31.5589333,1.7616 31.8101333,1.22453333 C31.8272,1.18826667 31.8096,1.14453333 31.7722667,1.13066667 C31.2016,0.9168 30.6224,0.725333333 30.0298667,0.573866667 L30.0298667,0.573866667 Z"/>
      <path fill="#348540" d="M21.8218667,17.4736 C21.8218667,21.608 20.2053333,25.3685333 17.5669333,28.1616 C17.1034667,26.6794667 16.8512,25.1066667 16.8512,23.48 C16.8512,19.3456 18.4677333,15.5781333 21.1061333,12.792 C21.5701333,14.2709333 21.8218667,15.8437333 21.8218667,17.4736"/>
      <path fill="#7DBC42" d="M14.9658667,23.48 C14.9658667,25.1066667 14.7168,26.6794667 14.2496,28.1616 C11.6112,25.3685333 9.99466667,21.608 9.99466667,17.4736 C9.99466667,15.8437333 10.2501333,14.2709333 10.7173333,12.792 C13.3557333,15.5781333 14.9658667,19.3456 14.9658667,23.48"/>
    </g>
  </g>
</svg>
